<?xml version="1.0" encoding="UTF-8"?>
<svg version="1.1" xmlns="http://www.w3.org/2000/svg" width="16" height="16">
<path d="M0 0 C5.28 0 10.56 0 16 0 C16 5.28 16 10.56 16 16 C10.72 16 5.44 16 0 16 C0 10.72 0 5.44 0 0 Z " fill="#0C0C13" transform="translate(0,0)"/>
<path d="M0 0 C5.28 0 10.56 0 16 0 C16 0.33 16 0.66 16 1 C15.24074219 1.03738281 14.48148438 1.07476562 13.69921875 1.11328125 C12.70535156 1.17902344 11.71148437 1.24476563 10.6875 1.3125 C9.70136719 1.37050781 8.71523437 1.42851562 7.69921875 1.48828125 C5.02817666 1.81633597 5.02817666 1.81633597 3.1875 3.1875 C1.55065444 5.68584323 1.48681594 7.72412896 1.3125 10.6875 C1.24675781 11.68136719 1.18101562 12.67523438 1.11328125 13.69921875 C1.07589844 14.45847656 1.03851563 15.21773437 1 16 C0.67 16 0.34 16 0 16 C0 10.72 0 5.44 0 0 Z " fill="#08080C" transform="translate(0,0)"/>
<path d="M0 0 C1.65 0.33 3.3 0.66 5 1 C5.33 1.99 5.66 2.98 6 4 C3.36 4 0.72 4 -2 4 C-1.34 2.68 -0.68 1.36 0 0 Z " fill="#D0D0D6" transform="translate(8,12)"/>
</svg>
