<?xml version="1.0" encoding="UTF-8"?>
<svg version="1.1" xmlns="http://www.w3.org/2000/svg" width="236" height="242">
<path d="M0 0 C77.88 0 155.76 0 236 0 C236 79.86 236 159.72 236 242 C158.12 242 80.24 242 0 242 C0 162.14 0 82.28 0 0 Z " fill="#0B0B11" transform="translate(0,0)"/>
<path d="M0 0 C77.88 0 155.76 0 236 0 C236 79.86 236 159.72 236 242 C158.12 242 80.24 242 0 242 C0 162.14 0 82.28 0 0 Z M15.75390625 29.60546875 C8.00926361 40.17888955 6.70063543 50.12368088 6.70947266 62.89892578 C6.70348124 64.30742242 6.69667429 65.71591579 6.68911743 67.12440491 C6.67150755 70.93674286 6.66676404 74.74899091 6.66548586 78.5613656 C6.66406028 80.9490301 6.65978289 83.33667203 6.65449142 85.7243309 C6.63600416 94.07111806 6.62781873 102.41784149 6.62939453 110.76464844 C6.63059395 118.51665657 6.60952766 126.26838539 6.5779072 134.02032292 C6.55165202 140.69748292 6.54103117 147.37455226 6.54230535 154.05176342 C6.54281249 158.02996138 6.53726834 162.00791122 6.51594925 165.98605728 C6.49641149 169.73400722 6.49654679 173.4814764 6.51098251 177.2294445 C6.51403036 179.23912292 6.49750152 181.24880219 6.48010254 183.25840759 C6.57049264 196.48786173 9.85077767 209.33819191 19.0703125 219.21875 C31.40392651 230.73585298 44.64522915 233.46296883 61.19116211 233.40405273 C62.57084195 233.40977092 63.95051708 233.41674071 65.33018494 233.42485046 C69.04104219 233.44263663 72.75166112 233.44164135 76.46254802 233.43590808 C79.57605801 233.4327952 82.68952359 233.43893176 85.80302721 233.44494683 C93.15542564 233.45894248 100.50770775 233.45747212 107.86010742 233.44604492 C115.41172013 233.43456652 122.96297755 233.4486459 130.51454347 233.4754414 C137.03045883 233.49768503 143.54626337 233.50421644 150.06221396 233.49836498 C153.93971978 233.49501506 157.81699796 233.49727821 161.69447136 233.51461601 C165.34319985 233.5302225 168.99140683 233.52598042 172.64011574 233.50731087 C174.59486357 233.50194132 176.54963563 233.51603379 178.5043335 233.53100586 C192.47937972 233.41603214 204.9819478 229.50511283 215.3203125 219.828125 C226.12265785 208.26841964 228.46152791 195.26225535 228.38818359 179.79882812 C228.39225859 178.40620006 228.39760564 177.01357524 228.40411377 175.62095642 C228.41768305 171.87090675 228.41253219 168.12110723 228.40297651 164.3710537 C228.39532557 160.42709099 228.40244049 156.48314821 228.40713501 152.53918457 C228.41257686 145.91882524 228.40544239 139.29856665 228.39111328 132.67822266 C228.37478977 125.0488218 228.38007939 117.41966155 228.3965925 109.79026651 C228.41025234 103.213261 228.41210514 96.63632747 228.40427649 90.05931234 C228.39962459 86.14277808 228.39890608 82.22635652 228.40888596 78.30982971 C228.41761923 74.62589443 228.41141919 70.9422662 228.39420319 67.25836372 C228.38841244 65.27937861 228.39719927 63.3003672 228.40658569 61.32139587 C228.30966963 47.54552727 224.91338377 36.04915396 215.8125 25.453125 C207.40463811 17.21120775 195.94465264 11.90108897 184.10169983 11.85282898 C182.29155396 11.84209602 182.29155396 11.84209602 180.44483948 11.83114624 C179.11044337 11.82830612 177.77604699 11.82559437 176.44165039 11.82299805 C175.03359816 11.81672996 173.62554757 11.81008286 172.21749878 11.80308533 C167.59422958 11.78207194 162.97096019 11.77168096 158.34765625 11.76171875 C156.75187094 11.75766925 155.15608579 11.75355227 153.56030083 11.74936867 C146.05688867 11.73031777 138.5534863 11.71609024 131.05005461 11.7077567 C122.41316126 11.69800422 113.77652555 11.67173659 105.13972288 11.63125581 C98.4498957 11.60098673 91.76014187 11.58627739 85.07024759 11.58297569 C81.08192815 11.58063619 77.09388394 11.57182155 73.1056385 11.54651451 C69.3454382 11.52304095 65.58569053 11.5190768 61.82543564 11.52927589 C59.80855651 11.5299986 57.79169937 11.51104085 55.7749176 11.49121094 C39.26316608 11.58426397 26.45294062 16.91792698 15.75390625 29.60546875 Z " fill="#08080B" transform="translate(0,0)"/>
<path d="M0 0 C8.49706853 0.20501984 8.49706853 0.20501984 12.51928711 2.71508789 C14.56578791 5.62940866 15.97992556 8.54002879 17.43334961 11.78930664 C18.83931048 13.9671676 20.27038016 16.09816136 21.74584961 18.22680664 C22.57487853 19.47795187 23.4015047 20.73069101 24.22631836 21.98461914 C26.87978404 25.98396822 29.58486827 29.94660188 32.29663086 33.90649414 C33.16933341 35.18322546 34.04197288 36.4599999 34.91455078 37.73681641 C36.23508341 39.6689558 37.55709868 41.59998912 38.88394165 43.52780151 C40.13632192 45.34785072 41.38298953 47.17169387 42.62866211 48.99633789 C43.36101074 50.06343994 44.09335938 51.13054199 44.84790039 52.22998047 C46.43334961 54.78930664 46.43334961 54.78930664 46.43334961 56.78930664 C42.53852745 57.02212737 38.64549107 57.16387303 34.74584961 57.28930664 C33.64305664 57.35633789 32.54026367 57.42336914 31.40405273 57.49243164 C30.33735352 57.51821289 29.2706543 57.54399414 28.17163086 57.57055664 C27.19234619 57.61245117 26.21306152 57.6543457 25.20410156 57.69750977 C21.82141205 56.58872441 21.73913101 55.85446641 20.15478516 52.80688477 C18.44025238 49.70137095 18.44025238 49.70137095 15.45161438 48.02233887 C12.98807561 47.73131275 10.63248525 47.67984601 8.15209961 47.72680664 C7.26099487 47.71915283 6.36989014 47.71149902 5.45178223 47.70361328 C3.57238227 47.6981822 1.69283026 47.7128571 -0.1862793 47.74633789 C-3.05999288 47.78920733 -5.92371566 47.74675314 -8.79711914 47.69555664 C-10.62656824 47.70084337 -12.45601113 47.71109379 -14.28540039 47.72680664 C-15.14073364 47.71061279 -15.99606689 47.69441895 -16.87731934 47.67773438 C-19.35546973 47.75542868 -21.2510323 47.89312009 -23.56665039 48.78930664 C-25.16494479 50.75434485 -26.25767257 52.74838288 -27.42428589 54.99243164 C-28.56665039 56.78930664 -28.56665039 56.78930664 -31.33740234 57.69750977 C-32.80632935 57.63466797 -32.80632935 57.63466797 -34.30493164 57.57055664 C-35.90498047 57.53188477 -35.90498047 57.53188477 -37.53735352 57.49243164 C-39.19154297 57.39188477 -39.19154297 57.39188477 -40.87915039 57.28930664 C-42.0012793 57.25321289 -43.1234082 57.21711914 -44.27954102 57.17993164 C-47.0453966 57.08577485 -49.8042728 56.95443325 -52.56665039 56.78930664 C-51.06292553 52.48503898 -48.80290652 48.91629707 -46.23461914 45.18774414 C-45.80597061 44.55733215 -45.37732208 43.92692017 -44.9356842 43.27740479 C-43.54638911 41.23656018 -42.15040864 39.20039213 -40.75415039 37.16430664 C-39.7996478 35.76532887 -38.84554765 34.36607643 -37.8918457 32.96655273 C-35.99954344 30.19140989 -34.10450566 27.41817029 -32.20678711 24.64672852 C-29.905922 21.28649835 -27.61185651 17.92169395 -25.32055664 14.55493164 C-24.15284909 12.84121197 -22.98490379 11.12765425 -21.81665039 9.41430664 C-21.2870874 8.63748535 -20.75752441 7.86066406 -20.21191406 7.06030273 C-14.6066203 -1.12891093 -9.68212745 0.10860604 0 0 Z " fill="#F1F1F6" transform="translate(74.566650390625,93.210693359375)"/>
<path d="M0 0 C7.26 0 14.52 0 22 0 C22 12.87 22 25.74 22 39 C39.16 39 56.32 39 74 39 C74 44.61 74 50.22 74 56 C49.58 56 25.16 56 0 56 C0 37.52 0 19.04 0 0 Z " fill="#F0F0F5" transform="translate(133,94)"/>
<path d="M0 0 C3.46331526 3.15910514 5.8621198 6.69443366 8.25 10.6875 C8.61351563 11.28111328 8.97703125 11.87472656 9.3515625 12.48632812 C12 16.85226739 12 16.85226739 12 18 C4.41 18 -3.18 18 -11 18 C-7.64440403 11.67899363 -4.3131255 5.70854846 0 0 Z " fill="#0E0D14" transform="translate(71,110)"/>
</svg>
